<?xml version="1.0" standalone="no"?><!DOCTYPE svg PUBLIC "-//W3C//DTD SVG 1.1//EN" "http://www.w3.org/Graphics/SVG/1.1/DTD/svg11.dtd"><svg t="1643098733716" class="icon" viewBox="0 0 1024 1024" version="1.1" xmlns="http://www.w3.org/2000/svg" p-id="1781" xmlns:xlink="http://www.w3.org/1999/xlink" width="200" height="200"><defs><style type="text/css"></style></defs><path d="M837.12 23.552h-650.24c-61.44 0-111.616 55.296-111.616 122.88v731.136c0 67.584 50.176 122.88 111.616 122.88h650.752c61.44 0 111.616-55.296 111.616-122.88V146.432c-0.512-68.096-50.176-122.88-112.128-122.88z m-354.816 40.96v214.528l-93.696-56.32L296.96 278.528V64.512h185.344z m425.472 813.056c0 45.056-31.744 81.92-70.656 81.92h-650.24c-38.912 0-70.656-36.864-70.656-81.92V146.432c0-45.056 31.744-81.92 70.656-81.92H256v287.232l132.608-81.408 134.656 80.896v-286.72h314.368c38.912 0 70.656 36.864 70.656 81.92l-0.512 731.136z" p-id="1782" fill="#1296db"></path><path d="M747.52 557.568H276.48c-11.264 0-20.48 9.216-20.48 20.48s9.216 20.48 20.48 20.48h471.04c11.264 0 20.48-9.216 20.48-20.48s-9.216-20.48-20.48-20.48z m0 190.976H276.48c-11.264 0-20.48 9.216-20.48 20.48s9.216 20.48 20.48 20.48h471.04c11.264 0 20.48-9.216 20.48-20.48s-9.216-20.48-20.48-20.48z" p-id="1783" fill="#1296db"></path></svg>