<?xml version="1.0" standalone="no"?><!DOCTYPE svg PUBLIC "-//W3C//DTD SVG 1.1//EN" "http://www.w3.org/Graphics/SVG/1.1/DTD/svg11.dtd"><svg t="1640576908512" class="icon" viewBox="0 0 1024 1024" version="1.1" xmlns="http://www.w3.org/2000/svg" p-id="6743" xmlns:xlink="http://www.w3.org/1999/xlink" width="200" height="200"><defs><style type="text/css"></style></defs><path d="M899.9 512c0-59.2-13.4-115.3-37.2-165.5 15.2 115.5-25.9 269-137.7 380.8C615.5 836.8 463.6 876 349.1 863.5c49.6 23.1 104.9 36.1 163.2 36.1 213.7 0 387.6-173.9 387.6-387.6z" fill="#fab80b" p-id="6744"></path><path d="M512.2 64.2c-64.9 0-127.5 13.6-186.1 40.4-15.1 6.9-21.7 24.7-14.8 39.8 6.9 15.1 24.7 21.7 39.8 14.8 50.7-23.2 104.9-34.9 161.1-34.9 154.6 0 288.2 91 350.4 222.1 23.8 50.2 37.2 106.3 37.2 165.5 0 213.7-173.9 387.6-387.6 387.6-58.3 0-113.5-13-163.2-36.1-132.4-61.7-224.5-196-224.5-351.5 0-88.4 30.5-174.9 86-243.5 10.4-12.9 8.4-31.8-4.5-42.3-12.9-10.4-31.8-8.4-42.3 4.5C99.8 310 64.5 409.9 64.5 512c0 246.9 200.9 447.8 447.8 447.8S960 758.9 960 512 759.1 64.2 512.2 64.2z" fill="#fab80b" p-id="6745"></path><path d="M249 217.8c6.7 0 13.4-2.2 18.9-6.7 3.4-2.8 6.9-5.5 10.4-8.1 13.2-10 15.8-28.9 5.8-42.1-10-13.2-28.9-15.8-42.1-5.8-4 3.1-8 6.2-12 9.4-12.9 10.5-14.8 29.4-4.4 42.3 6 7.2 14.6 11 23.4 11z" fill="#fab80b" p-id="6746"></path><path d="M457.965 645.158L638.63 464.494l47.447 47.446-180.664 180.664z" fill="#fab80b" p-id="6747"></path><path d="M526.7 310.1c11.7-11.7 11.7-30.8 0-42.5s-30.8-11.7-42.5 0L261 490.7c-5.6 5.6-8.8 13.3-8.8 21.3s3.2 15.6 8.8 21.3l223.2 223.2c5.9 5.9 13.6 8.8 21.3 8.8 7.7 0 15.4-2.9 21.3-8.8L750 533.3c11.7-11.7 11.7-30.8 0-42.5L594.7 335.5c-11.7-11.7-30.8-11.7-42.5 0s-11.7 30.8 0 42.5l86.5 86.5 47.5 47.5-180.8 180.6-47.4-47.4L324.8 512l201.9-201.9z" fill="#fab80b" p-id="6748"></path></svg>