<?xml version="1.0" standalone="no"?><!DOCTYPE svg PUBLIC "-//W3C//DTD SVG 1.1//EN" "http://www.w3.org/Graphics/SVG/1.1/DTD/svg11.dtd"><svg t="1640590243265" class="icon" viewBox="0 0 1024 1024" version="1.1" xmlns="http://www.w3.org/2000/svg" p-id="1789" xmlns:xlink="http://www.w3.org/1999/xlink" width="200" height="200"><defs><style type="text/css"></style></defs><path d="M509.3376 102.272 306.9696 307.8144 591.4112 471.7568 802.56 266.5472Z" p-id="1790" fill="#4ab7b6"></path><path d="M306.9696 339.6096 561.4592 486.8352 602.3936 907.3408 499.6096 907.3408Z" p-id="1791" fill="#4ab7b6"></path><path d="M802.56 287.0016 602.3936 491.3152 631.5008 907.3408 770.8416 792.3968Z" p-id="1792" fill="#4ab7b6"></path><path d="M102.7584 481.2544 57.9584 646.8608 253.184 648.704 302.592 480.7424Z" p-id="1793" fill="#4ab7b6"></path><path d="M67.2512 663.296 242.0736 665.2416 444.0576 916.8384 396.0064 921.7536Z" p-id="1794" fill="#4ab7b6"></path><path d="M308.608 491.3408 264.576 655.5904 459.1104 908.3392 466.048 858.5984Z" p-id="1795" fill="#4ab7b6"></path><path d="M929.3568 487.2192 817.408 521.2928 887.04 634.8032 1002.0608 602.5472Z" p-id="1796" fill="#4ab7b6"></path><path d="M811.2384 532.608 873.4464 634.3424 801.152 842.24 780.9536 816.256Z" p-id="1797" fill="#4ab7b6"></path><path d="M998.0416 609.8432 887.1424 643.8912 811.4944 847.8976 842.8032 833.8944Z" p-id="1798" fill="#4ab7b6"></path></svg>