<?xml version="1.0" standalone="no"?><!DOCTYPE svg PUBLIC "-//W3C//DTD SVG 1.1//EN" "http://www.w3.org/Graphics/SVG/1.1/DTD/svg11.dtd"><svg t="1643098781706" class="icon" viewBox="0 0 1024 1024" version="1.1" xmlns="http://www.w3.org/2000/svg" p-id="2734" xmlns:xlink="http://www.w3.org/1999/xlink" width="200" height="200"><defs><style type="text/css"></style></defs><path d="M936.026112 65.519616c-6.11328-18.722816-15.499264-46.956544-56.131584-46.956544H149.225472c-41.193472 0-50.393088 28.90752-55.332864 44.437504L20.77696 401.068032c-2.965504 22.091776 4.446208 35.844096 11.173888 43.454464 10.375168 11.784192 26.062848 17.616896 46.37696 17.616896 2.226176 2.048 4.560896 4.02432 6.979584 5.9392V948.67456c0 31.363072 25.628672 56.895488 57.184256 56.895488H885.76c31.555584 0 57.243648-25.532416 57.243648-56.895488V466.239488a128.09216 128.09216 0 0 0 4.878336-4.163584h1.112064c13.953024 0 26.427392-3.44064 36.186112-10.00448 10.620928-7.059456 23.277568-21.174272 22.786048-52.7872L936.026112 65.519616z m-39.335936 883.152896c0 5.953536-4.876288 10.862592-10.928128 10.862592H142.491648a10.862592 10.862592 0 0 1-10.866688-10.862592V492.730368c16.979968 5.71392 35.20512 8.871936 53.291008 8.871936 35.633152 0 77.871104-13.871104 105.908224-33.447936 28.407808 19.7632 74.723328 36.70016 120.111104 36.70016 41.930752 0 91.273216-24.487936 115.664896-38.295552 25.628672 18.900992 67.743744 34.981888 117.950464 34.981888 47.982592-0.120832 84.045824-19.39456 103.806976-33.263616 26.058752 18.655232 63.172608 30.441472 98.8672 30.441472 17.22368 0 33.927168-2.646016 49.465344-7.64928v457.603072z m62.6176-534.595584c-1.978368 1.349632-5.926912 2.08896-15.5648 1.783808l-12.720128-2.58048-8.892416 9.51296c-17.354752 18.784256-45.326336 30.01344-74.907648 30.01344-35.135488 0-67.434496-15.097856-81.266688-30.01344l-16.365568-17.494016-17.108992 16.760832c-0.3072 0.305152-34.459648 33.325056-88.80128 33.509376-43.966464 0-82.317312-16.508928-97.445888-32.899072l-13.217792-14.297088-16.427008 10.55744c-17.227776 11.046912-69.779456 39.829504-105.658368 39.829504-44.771328 0-89.419776-21.417984-103.129088-36.272128l-16.979968-18.35008-17.102848 18.35008c-14.514176 15.652864-54.593536 33.081344-88.805376 33.081344-35.817472 0-66.076672-16.265216-80.091136-32.407552l-8.769536-9.756672-12.845056 2.207744c-0.555008 0.12288-3.024896 0.493568-6.23616 0.493568-6.729728 0-9.754624-1.533952-10.123264-1.845248 0 0-0.927744-1.779712-0.497664-5.337088L135.886848 83.314688l2.097152-6.443008c1.236992-3.803136 3.211264-10.129408 4.571136-11.169792 0.3072-0.249856 2.347008-0.923648 6.6048-0.923648h730.673152c4.569088 0 6.17472 0.673792 6.23616 0.673792 1.667072 1.599488 4.261888 9.455616 6.299648 15.286272L962.1504 404.258816c0 3.618816-0.497664 8.28416-2.842624 9.818112z" fill="" p-id="2735"></path><path d="M228.352 857.088h126.976v40.96h-126.976zM439.296 857.088h395.264v40.96h-395.264z" fill="" p-id="2736"></path></svg>