<?xml version="1.0" standalone="no"?><!DOCTYPE svg PUBLIC "-//W3C//DTD SVG 1.1//EN" "http://www.w3.org/Graphics/SVG/1.1/DTD/svg11.dtd"><svg t="1643098883098" class="icon" viewBox="0 0 1024 1024" version="1.1" xmlns="http://www.w3.org/2000/svg" p-id="4570" xmlns:xlink="http://www.w3.org/1999/xlink" width="200" height="200"><defs><style type="text/css"></style></defs><path d="M432 608h-128c-17.6 0-32 14.4-32 32s14.4 32 32 32h128c17.6 0 32-14.4 32-32s-14.4-32-32-32zM592 448H304c-17.6 0-32 14.4-32 32s14.4 32 32 32h288c17.6 0 32-14.4 32-32s-14.4-32-32-32zM592 288H304c-17.6 0-32 14.4-32 32s14.4 32 32 32h288c17.6 0 32-14.4 32-32s-14.4-32-32-32z" fill="#1296db" p-id="4571"></path><path d="M784 256v-32c0-70.4-57.6-128-128-128H240c-70.4 0-128 57.6-128 128v576c0 70.4 57.6 128 128 128h544c70.4 0 128-57.6 128-128V384c0-70.4-57.6-128-128-128z m64 544c0 35.2-28.8 64-64 64H240c-35.2 0-64-28.8-64-64V224c0-35.2 28.8-64 64-64h416c35.2 0 64 28.8 64 64v480c0 17.6 14.4 32 32 32s32-14.4 32-32V320c35.2 0 64 28.8 64 64v416z" fill="#1296db" p-id="4572"></path></svg>